<?xml version="1.0" encoding="utf-8"?>
<!-- Generator: Adobe Illustrator 22.0.0, SVG Export Plug-In . SVG Version: 6.00 Build 0)  -->
<svg version="1.1" id="Layer_1" xmlns="http://www.w3.org/2000/svg" xmlns:xlink="http://www.w3.org/1999/xlink" x="0px" y="0px"
	 viewBox="0 0 300 300" style="enable-background:new 0 0 300 300;" xml:space="preserve">
<style type="text/css">
	.st0{fill:#0000FF;}
	.st1{fill:none;stroke:#000000;stroke-width:9.5;stroke-miterlimit:10;}
	.st2{fill:none;stroke:#0000FF;stroke-width:9.5;stroke-miterlimit:10;}
</style>
<path class="st0" d="M-1058.2,242.3c-3.5-19.8-14.7-48.7-36.5-72.2h205.4v-40.1h-205.4c21.8-23.5,32.9-52.4,36.4-72.2l-39.5-7.1
	c-0.6,3.2-15.5,79.3-91.5,79.3v40.1c76,0,90.9,76,91.5,79.3L-1058.2,242.3z"/>
<path d="M-689.2,242.3c-3.5-19.8-14.7-48.7-36.5-72.2h205.4v-40.1h-205.4c21.8-23.5,32.9-52.4,36.4-72.2l-39.5-7.1
	c-0.6,3.2-15.5,79.3-91.5,79.3v40.1c76,0,90.9,76,91.5,79.3L-689.2,242.3z"/>
<path d="M-229.9,169c-19.8,3.5-48.7,14.7-72.2,36.5V0h-40.1v205.4c-23.5-21.8-52.4-32.9-72.2-36.4l-7.1,39.5
	c3.2,0.6,79.3,15.5,79.3,91.5h40.1c0-76,76-90.9,79.3-91.5L-229.9,169z"/>
<path class="st0" d="M249.3,208.5l-3.6-19.7l-3.5-19.8c-19.8,3.5-48.7,14.7-72.2,36.5V0h-40.1v205.4c-23.5-21.8-52.4-32.9-72.2-36.4
	l-7.1,39.5c3.2,0.6,79.3,15.5,79.3,91.5h40.1C170.1,224,246.1,209.1,249.3,208.5z"/>
<path class="st1" d="M-344.1-80.2c0,0,22.7,4,22.7,26.3v-71"/>
<path class="st1" d="M-298.8-80.2c0,0-22.7,4-22.7,26.3"/>
<path class="st2" d="M-220.6-80.2c0,0,22.7,4,22.7,26.3v-71"/>
<path class="st2" d="M-175.3-80.2c0,0-22.7,4-22.7,26.3"/>
</svg>
