<?xml version="1.0" encoding="utf-8"?>
<!-- Generator: Adobe Illustrator 22.0.0, SVG Export Plug-In . SVG Version: 6.00 Build 0)  -->
<svg height="100" width="100" version="1.1" id="Layer_1" xmlns="http://www.w3.org/2000/svg" xmlns:xlink="http://www.w3.org/1999/xlink" x="0px" y="0px"
	 viewBox="0 0 300 198.7" style="enable-background:new 0 0 300 198.7;" xml:space="preserve">
<style type="text/css">
	.st0{fill:#0000FF;}
	.st1{fill:none;stroke:#000000;stroke-width:9.5;stroke-miterlimit:10;}
	.st2{fill:none;stroke:#0000FF;stroke-width:9.5;stroke-miterlimit:10;}
</style>
<path d="M131,191.6c-3.5-19.8-14.7-48.7-36.5-72.2H300V79.3H94.6c21.8-23.5,32.9-52.4,36.4-72.2L91.5,0C90.9,3.2,76,79.3,0,79.3
	v40.1c76,0,90.9,76,91.5,79.3L131,191.6z"/>
<path d="M590.3,118.3c-19.8,3.5-48.7,14.7-72.2,36.5V-50.7h-40.1v205.4c-23.5-21.8-52.4-32.9-72.2-36.4l-7.1,39.5
	c3.2,0.6,79.3,15.5,79.3,91.5h40.1c0-76,76-90.9,79.3-91.5L590.3,118.3z"/>
<path class="st0" d="M1069.6,157.8l-3.6-19.7l-3.5-19.8c-19.8,3.5-48.7,14.7-72.2,36.5V-50.7h-40.1v205.4
	c-23.5-21.8-52.4-32.9-72.2-36.4l-7.1,39.5c3.2,0.6,79.3,15.5,79.3,91.5h40.1C990.3,173.4,1066.3,158.4,1069.6,157.8z"/>
<path class="st1" d="M476.1-130.8c0,0,22.7,4,22.7,26.3v-71"/>
<path class="st1" d="M521.4-130.8c0,0-22.7,4-22.7,26.3"/>
<path class="st2" d="M599.6-130.8c0,0,22.7,4,22.7,26.3v-71"/>
<path class="st2" d="M644.9-130.8c0,0-22.7,4-22.7,26.3"/>
</svg>
